<svg xmlns="http://www.w3.org/2000/svg" viewBox="0 0 475.45 115.5"><defs><style>.cls-1{fill:#16161f;}.cls-2{fill:#fefefe;}</style></defs><title>github</title><g id="Layer_2" data-name="Layer 2"><g id="Layer_1-2" data-name="Layer 1"><path class="cls-1" d="M75,103.51c-.07-4.24.3-8.48-.56-12.69a9.07,9.07,0,0,0-1.55-3.31c-.85-1.27-.5-2,1-2.16a29.31,29.31,0,0,0,14.71-5.47A21.42,21.42,0,0,0,96,70.54a40,40,0,0,0,2.57-14.91,22.65,22.65,0,0,0-5.21-14.5,2.37,2.37,0,0,1-.39-2.42c1.35-4.1.61-8.13-.34-12.15-.48-2-1.43-2.89-4.1-2.3C83.91,25.28,80,27.5,76,29.68a3.66,3.66,0,0,1-2.92.3c-1.6-.45-3.34-.42-4.9-.94-2.86-.94-5.86-.76-8.7-.71a52.6,52.6,0,0,0-13,1.72,2.72,2.72,0,0,1-2.3-.17c-1.92-1.13-3.82-2.29-5.79-3.33a24.36,24.36,0,0,0-8-2.57,2.13,2.13,0,0,0-2.62,1.52A22.4,22.4,0,0,0,27,38.9a2.09,2.09,0,0,1-.5,2.35c-2.08,1.81-2.93,4.39-3.77,6.81C20.44,54.66,21,61.35,22.93,68,25,75.12,29.66,79.88,36.55,82.64a34.74,34.74,0,0,0,9.59,2.57c1.42.14,1.82,1.1,1,2.27a7.3,7.3,0,0,0-1.68,3.9c-.15,2-1.79,2.46-3.26,2.87a12.47,12.47,0,0,1-10.48-1.49A13.72,13.72,0,0,1,28,88.57a16.45,16.45,0,0,0-6.18-5.72,7,7,0,0,0-4.69-.59c-.56.13-1.25.19-1.27,1s-.13,1.41.69,2c2.68,1.87,5.2,3.9,6.82,6.88.74,1.37,1.09,2.87,1.89,4.23,2.11,3.57,5.41,5.12,9.25,5.87a21.73,21.73,0,0,0,8.08,0c2.21-.4,2.44,0,2.43,2.15,0,2.42,0,4.85,0,7.27,0,3.19-2.28,4.64-5.21,3.36-3.57-1.55-7.3-2.74-10.6-4.89A63.79,63.79,0,0,1,20,103.42c-3.17-3-6.47-5.91-8.85-9.56-3.72-5.7-7-11.61-8.77-18.3A63.7,63.7,0,0,1,.07,55.73,61.64,61.64,0,0,1,2.78,41.61a45.85,45.85,0,0,1,4.05-9.92A61.23,61.23,0,0,1,20.3,14.89,60,60,0,0,1,30.63,7.62a50,50,0,0,1,12.09-5C45.47,1.94,48.21,1.24,51,.71A51.78,51.78,0,0,1,64.32.19a81.51,81.51,0,0,1,13.82,2.6,38.19,38.19,0,0,1,5.57,2.08c3,1.24,5.66,3,8.48,4.45,2.49,1.33,4.48,3.27,6.72,4.9,3,2.19,5.28,5.17,7.82,7.84,1.89,2,3.12,4.57,4.72,6.84,3.36,4.79,5.07,10.28,6.61,15.82a55.42,55.42,0,0,1,1.65,18.16A59.86,59.86,0,0,1,118,73.82a57.47,57.47,0,0,1-12.39,23.66A62.35,62.35,0,0,1,94.5,107.54c-4.56,3.29-9.62,5.48-14.75,7.61-2.6,1.07-5.17-.73-4.81-3.41a30.8,30.8,0,0,0,0-4.19Z"/><path class="cls-1" d="M209.46,79.24q0,9.12,0,18.25a6.12,6.12,0,0,0,.15,1.27,1.9,1.9,0,0,1-1.16,2.36c-5,2.54-10,4.85-15.68,5.31a81.49,81.49,0,0,1-19.12-.19c-7.91-1.23-14.94-4.54-20.19-10.88a35.12,35.12,0,0,1-6.06-11.57c-2.6-7.87-2.75-16-2.67-24.19a78.33,78.33,0,0,1,1.64-13.33,39.93,39.93,0,0,1,5.51-14.08,30.58,30.58,0,0,1,7.37-7.78,27.9,27.9,0,0,1,7.47-3.94,26.89,26.89,0,0,1,8.4-2c2.84-.09,5.66-.43,8.51-.4a74.22,74.22,0,0,1,15.93,1.78,41.32,41.32,0,0,1,4.25,1.38c1.94.68,2.57,1.45,2,3.37-1.07,3.76-1.77,7.6-2.69,11.39-.29,1.21-1.2,1.48-2.26,1.06-2.51-1-5.16-1.21-7.79-1.7a43.59,43.59,0,0,0-11.51-.33c-7.24.57-12.89,3.71-15.92,10.8a39.53,39.53,0,0,0-2.72,14.06,65,65,0,0,0,.37,11.43c.8,5.92,2.52,11.61,7.41,15.6a14.08,14.08,0,0,0,8.52,3.23,62.79,62.79,0,0,0,10.62-.24A2.13,2.13,0,0,0,192,87.64c0-1.72-.15-3.45,0-5.16.22-3.13-.51-6.21-.27-9.33.08-1-.59-1.05-1.36-1.05q-4.2,0-8.4,0c-2.06,0-2.54-.52-2.54-2.61q0-5.34,0-10.66c0-2,.52-2.59,2.59-2.59q12.69,0,25.36,0c1.67,0,2.62.91,2.35,2.49a41.91,41.91,0,0,0-.18,6.43c-.05,4.69,0,9.37,0,14.06Z"/><path class="cls-1" d="M351,63.38V102.8c0,2.08-.95,2.77-3,2.55a46,46,0,0,0-11.06,0c-2.57.35-3.82-.59-3.82-3.2q0-16,.08-32c0-1.08-.45-1.33-1.31-1.33-7.43,0-14.86,0-22.29,0-1.13,0-1.67.47-1.66,1.79.07,10.87.05,21.75.1,32.62,0,1.57-.79,2.14-2.18,2.14-4.53,0-9.05,0-13.57,0-1.58,0-2.09-.71-2.09-2.57,0-6.41,0-12.81,0-19.22q0-29.72,0-59.44c0-2.57.27-2.84,2.89-2.84,4.2,0,8.39,0,12.59,0,2,0,2.33.35,2.33,2.37Q308,37.6,308,51.5c0,1.18.5,1.58,1.65,1.58q11,0,22,0c1.17,0,1.62-.45,1.62-1.62q-.06-13.56-.06-27.13c0-2.55.44-3,3-3h12.43c2.1,0,2.39.32,2.39,2.47Q351,43.6,351,63.38Z"/><path class="cls-1" d="M420.7,63.29V23.89c0-2.26.28-2.54,2.47-2.55,4.36,0,8.72,0,13.08,0,2,0,2.33.35,2.33,2.37,0,8.29,0,16.58-.08,24.87,0,1.27.57,1.61,1.58,1.19,2.07-.84,4.12-1.72,6.27-2.4a16,16,0,0,1,3.11-.69c6.68-.63,13.11-.08,18.55,4.49a14.2,14.2,0,0,1,3,3.74c3.32,5.67,4.39,11.85,4.42,18.33,0,5.32,0,10.64-1.11,15.84-1,4.64-2.39,9.18-5.91,12.69a15.93,15.93,0,0,1-10,4.83c-4.42.35-8.92.62-13.3-.58a29,29,0,0,1-9.12-4.11c-1.34-.92-1.84-.61-2,1-.18,2-.59,2-2.66,2.34-2.56.43-5.07-.15-7.62.14s-3-.22-3-2.84Zm17.5,13.52h0c0,3.71.15,7.43-.06,11.12a2.85,2.85,0,0,0,2.09,3.17c2.93,1,5.91,2.05,9.07,1.67,2.21-.27,4.48-.62,6-2.61a10,10,0,0,0,1.93-4.7c.73-5.58,1.17-11.23,0-16.77-.91-4.21-2.37-6.92-7.23-7.66-3.77-.58-7.4.42-10.85,1.95a1.83,1.83,0,0,0-.95,1.89C438.21,68.85,438.2,72.83,438.2,76.81Z"/><path class="cls-1" d="M412.07,77v25.67c0,2.28-.5,2.79-2.72,2.8s-4.53,0-6.79,0c-2,0-2.42-.39-2.76-2.43-.22-1.31-1.22-1.58-2.54-.68a21.43,21.43,0,0,1-9.34,3.9c-6.74.84-13.61,1.5-20.07-1.36a13.87,13.87,0,0,1-7.45-8.62c-1.26-3.63-1.33-7.36-1.35-11.11,0-11.14,0-22.28,0-33.42a15.66,15.66,0,0,1,.06-1.94,1.64,1.64,0,0,1,1.82-1.62q7,0,14,0c1.51,0,1.92.78,1.92,2.14,0,10.77-.05,21.53,0,32.3a31.46,31.46,0,0,0,.6,5.72c.5,2.64,2.91,4.33,5.93,4.48a19.55,19.55,0,0,0,9.7-2.26,2.09,2.09,0,0,0,1.18-2.08q-.09-18.81-.06-37.62c0-2.14.52-2.66,2.68-2.66q6.22,0,12.44,0c2.23,0,2.72.5,2.72,2.8q0,13,0,26Z"/><path class="cls-1" d="M252.06,77.7c0-4.2,0-8.4,0-12.6,0-2.09-.24-2.36-2.38-2.33-1.72,0-3.45,0-5.17,0-1.51.06-2.17-.61-2.15-2.1,0-2.64,0-5.28,0-7.92a2.09,2.09,0,0,1,1.91-2.34,54.36,54.36,0,0,1,5.78-1.33c1.65-.16,2-1.17,2-2.64-.05-4.2-.05-8.4-.06-12.6,0-2,.19-2.2,2.22-2.2,4.36,0,8.72,0,13.08,0,1.93,0,2.25.33,2.25,2.27,0,4.2,0,8.41-.07,12.6,0,1,.28,1.31,1.22,1.44a31.88,31.88,0,0,0,5.94.08c1.45-.05,2.9-.11,4.35-.1a1.6,1.6,0,0,1,1.74,1.72c0,3.82,0,7.64,0,11.47,0,1.27-.79,1.64-1.92,1.63-3.07,0-6.14,0-9.2-.05-1.84,0-2.12.28-2.11,2.1,0,6.89,0,13.78,0,20.68,0,4.3,2.53,6.93,6.87,6.92,1.56,0,3.12,0,4.68,0A1.6,1.6,0,0,1,283,94a9.44,9.44,0,0,1,.1,2.25,30.42,30.42,0,0,0-.05,7.2c.2,1.45-1,2-2.11,2.51a9.25,9.25,0,0,1-3.48.6c-4.66.35-9.3.56-13.91-.76-8.18-2.34-11.18-9.56-11.42-15.78-.16-4.09,0-8.19,0-12.28Z"/><path class="cls-1" d="M236.38,76.65V103c0,2.21-.51,2.82-2.73,2.85q-6.28.07-12.59,0c-2.35,0-3.13-.91-3.13-3.26q0-25.76,0-51.5c0-3,.29-3.26,3.36-3.25H234c1.93,0,2.35.4,2.35,2.38q0,13.23,0,26.47Z"/><path class="cls-1" d="M227.36,22.94a10.13,10.13,0,0,1,.14,20.25,10.13,10.13,0,0,1-.14-20.25Z"/><path class="cls-2" d="M438.2,76.81c0-4,0-8,0-11.94a1.83,1.83,0,0,1,.95-1.89c3.45-1.53,7.08-2.53,10.85-1.95,4.86.74,6.32,3.45,7.23,7.66,1.19,5.54.75,11.19,0,16.77a10,10,0,0,1-1.93,4.7c-1.5,2-3.77,2.34-6,2.61-3.16.38-6.14-.71-9.07-1.67a2.85,2.85,0,0,1-2.09-3.17c.21-3.69.06-7.41.06-11.12Z"/></g></g></svg>