<svg xmlns="http://www.w3.org/2000/svg" viewBox="0 0 522.3 125.88"><defs><style>.cls-1{fill:#767676;}.cls-2{fill:#de5448;}.cls-3{fill:#f2f1f1;}.cls-4{fill:#767677;}.cls-5{fill:#7a7979;}.cls-6{fill:#7c7c7c;}.cls-7{fill:#d54f42;}.cls-8{fill:#dca39e;}.cls-9{fill:#727272;}.cls-10{fill:#777;}.cls-11{fill:#e77e73;}.cls-12{fill:#787878;}.cls-13{fill:#a9a9a9;}.cls-14{fill:#ccc;}.cls-15{fill:#757575;}.cls-16{fill:#fff;}.cls-17{fill:#c3c3c3;}.cls-18{fill:#6e6e6e;}.cls-19{fill:#f2f2f2;}.cls-20{fill:#d44637;}.cls-21{fill:#dd5145;}.cls-22{fill:#d44b3d;}.cls-23{fill:#d4483a;}.cls-24{fill:#d34f41;}.cls-25{fill:#b54b41;}.cls-26{fill:#dc4739;}.cls-27{fill:#cacaca;}.cls-28{fill:#b84034;}.cls-29{fill:#bd7f79;}.cls-30{fill:#d43e2c;}.cls-31{fill:#c3c2c2;}.cls-32{fill:#e3e9ea;}.cls-33{fill:#bdbab9;}.cls-34{fill:#e2e2e2;}.cls-35{fill:#dc483b;}.cls-36{fill:#dd4f41;}.cls-37{fill:#dc4b3e;}.cls-38{fill:#c2554a;}.cls-39{fill:#c74639;}.cls-40{fill:#eaeaea;}.cls-41{fill:#edf7f7;}.cls-42{fill:#c23c29;}.cls-43{fill:#a9372a;}.cls-44{fill:#b0382a;}.cls-45{fill:#be3b2b;}.cls-46{fill:#c8c8c8;}.cls-47{fill:#e1e1e0;}.cls-48{fill:#b7392a;}.cls-49{fill:#d7d7d6;}.cls-50{fill:#d1d1d1;}.cls-51{fill:#c9c8c8;}.cls-52{fill:#c44d3f;}.cls-53{fill:#c34e40;}.cls-54{fill:#c45144;}.cls-55{fill:#c34d40;}.cls-56{fill:#c44c3e;}.cls-57{fill:#c24e3f;}.cls-58{fill:#eee;}.cls-59{fill:#e6e6e5;}.cls-60{fill:#d7d6d6;}.cls-61{fill:#e0e0df;}</style></defs><title>gmail</title><g id="Layer_2" data-name="Layer 2"><g id="Layer_1-2" data-name="Layer 1"><path class="cls-1" d="M307.39,61.94c.94,1.83.84,3.9.84,5.8,0,17-6.41,32-24.66,39.86-23.76,10.22-52.48-.13-62.23-25.54-7.1-18.54-2-40.36,13-52.94,16-13.49,40.08-14.55,56.9-2.35,6.3,4.57,6.3,4.57.89,10-3.07,3.07-3,3-6.32.17-7.13-6.17-15.59-8.41-24.75-7.35-14.94,1.73-25.18,9.92-29.48,24.31-5.28,17.67,2,37.39,20.71,44.14,13.58,4.89,26.09,2.75,36.79-7.43.46-.44.95-.85,1.43-1.27,4-4.52,5.74-10,6.5-15.85a1.53,1.53,0,0,0-.69-1.43,8.21,8.21,0,0,0-3.08-.25c-7.84,0-15.67,0-23.5,0-3.38,0-3.76-.4-3.81-3.66-.09-5.83-.09-5.84,5.71-5.84H303c3.76,0,3.86.12,3.86,3.94,0,.16,0,.32,0,.48v5c.16-2.79-.26-6.12.19-9.42Z"/><path class="cls-1" d="M396.5,60.59C388.33,53.35,376,56.74,372,68.8c-.51,1.58-.83,3.22-1.23,4.84-.23,0-.43-.6-.51-.29a8,8,0,0,0,0,1.9q0,15.1,0,30.2c0,2.93-.35,3.28-3.32,3.31-8.12.06-6.69.24-6.74-6.6-.07-10.7,0-21.41,0-32.11q0,18.21,0,36.43c0,.85.27,1.78-.46,2.51-.68-.77-.32-1.69-.32-2.53-.07-12-.08-24-.16-35.94A16.47,16.47,0,0,0,357,62.31c-2.95-5.14-11-7.06-16.77-4.1-4.94,2.56-7.59,6.86-9.22,11.95a6.13,6.13,0,0,0-.81,3.9q0,16.18,0,32.36a5.47,5.47,0,0,1-.22,2.6h0c-3,.53-6.05.1-9.07.23-1.51.06-1.53-.9-1.52-2.07.05-11,0-22.07,0-33.1q0-11,0-22.06c0-2.81.17-3,3-3,1.68,0,3.36,0,5,0,1.41,0,2,.65,2,2a37.81,37.81,0,0,0,0,3.84c.13,1.33.72,1.78,1.83.7,2.62-4.21,6.62-6.62,11.14-8.11a22,22,0,0,1,19.86,2.69,16.27,16.27,0,0,1,5,5.71c.62,1.08,1.13,1.83,2.3.25a25,25,0,0,1,29.84-7.88c5.36,2.22,8.6,6.72,10.26,12.26.45,1.49,1.31,2.95.9,4.63A68.36,68.36,0,0,1,411,72.3c0,11.25,0,22.5,0,33.75a5.1,5.1,0,0,1-.43,3v0a50.73,50.73,0,0,1-10.16,0h0a5.51,5.51,0,0,1-.2-2.58c-.07-11.79.18-23.58-.15-35.37C400,67.31,399.27,63.54,396.5,60.59Z"/><path class="cls-1" d="M462.37,72.56c2.32,0,1.47-1.75,1.33-2.75a14.13,14.13,0,0,0-8.83-11.58,17.26,17.26,0,0,0-18.81,3.51A4.06,4.06,0,0,0,435,63c-1,2.87-2.79,2.56-5,1.38A34.14,34.14,0,0,0,425,62.23c-2-.71-2-1.78-1-3.4a23.11,23.11,0,0,1,12.07-10.39c9.82-3.5,19.45-3,28.42,2.66a19.11,19.11,0,0,1,8,9.81c2.69,7.1,2.1,14.51,2.11,21.87q0,12,0,23.92a5.07,5.07,0,0,1-.19,2.35h0a46,46,0,0,1-10.09,0c-1.08-1.75-.27-3.68-.52-5.52-.08-.51.27-1.23-.44-1.46s-.94.41-1.29.84c-7.3,9-19.18,10.36-29,6.62a9.89,9.89,0,0,1-1.94-.93h0c-.59-.42-1.4-.42-1.88-1a19.93,19.93,0,0,1-5-28.28c3.55-4.77,8.58-7.26,14.19-8.64a39,39,0,0,1,21.48,1C460.74,72,461.63,72.11,462.37,72.56Z"/><path class="cls-1" d="M510.74,64.6c0-13.9,0-27.81,0-41.72,0-2,.45-2.91,2.65-2.72a42.22,42.22,0,0,0,6.46,0c2-.13,2.62.73,2.45,2.53,0,.24,0,.48,0,.72q0,41.6,0,83.2c0,2.08-.52,2.9-2.66,2.75a47,47,0,0,0-6.71,0c-1.88.14-2.23-.6-2.23-2.33C510.77,92.9,510.74,78.75,510.74,64.6Z"/><path class="cls-2" d="M2.1,119.53a6.72,6.72,0,0,1-1.92-5q0-48.6.05-97.21c.56-2.33,0-4.73.42-7.09a11.21,11.21,0,0,1,9.59-9,6.6,6.6,0,0,1,4.28,1.18,56.25,56.25,0,0,0,5.82,3.72c5.23,2.88,9.81,6.74,14.79,10a1.19,1.19,0,0,1,.67,1.17,2.87,2.87,0,0,0-2.21,2,24.56,24.56,0,0,1-7.45,9.32c-.94.74-1.73,1.63-2.65,2.38a3.15,3.15,0,0,1-2.67.69,11.66,11.66,0,0,1-3.92-2.19c-4.64-3.35-9.72-6.06-14-9.85A.57.57,0,0,0,2,19.61c-.32,7-.05,14-.13,21,0,2.39,0,4.77,0,7.16.1,9.51-.06,19,0,28.54,0,12.54-.9,25.07-.52,37.61-.05,1.72.89,3.24,1.05,4.93A1.05,1.05,0,0,1,2.1,119.53Z"/><path class="cls-1" d="M487.8,109.09c-1.31,0-1-1-1-1.72,0-18.93,0-37.85,0-56.78,0-1.69.57-2.26,2.22-2.19q3.58.15,7.19,0c1.53-.06,2.15.48,2.15,2q0,28.75,0,57.5c0,.4,0,.8-.41,1-.88-.61-.7-1.55-.7-2.41q0-27,0-54c0-.54-.32-1.19.1-1.47-.4.51-.11,1.32-.11,2.05q0,26.28,0,52.54c0,2.8-.18,3-2.94,3.06C492.09,108.86,489.92,108.45,487.8,109.09Z"/><path class="cls-3" d="M3.59,3.52A8.12,8.12,0,0,1,12.18.2a20.24,20.24,0,0,0,3.55.35H155.62a15,15,0,0,0,3.32-.32c4.43-1,7.79,1.32,10.7,5.22a10.67,10.67,0,0,1,1.94,6.74q-.09,51.22,0,102.45c0,5-5.38,10.25-10.32,10.76-7.67.8-15.33.37-23,.38-38.16.08-76.31,0-114.46,0a12.57,12.57,0,0,1-4-.54.74.74,0,0,1,.43-.78,10.53,10.53,0,0,1,4-.32q63.38,0,126.77,0h.93c2.47,0,5-.17,7.42,0,5.24.48,11.14-5.51,11.11-11.17-.16-32.12-.07-64.24-.08-96.35.06-2.77.3-5.55-.76-8.25a11.12,11.12,0,0,0-8-6.93,3.67,3.67,0,0,0-3.13.75c-4.17,2.64-8.16,5.55-12.32,8.21-.93.59-1.77,1.4-3,1.38-1.56-1-.24-1.58.4-2.06,3.05-2.32,6.34-4.27,9.47-6.46a6,6,0,0,0,2.15-1.87,10.7,10.7,0,0,1-3.6.24H18.24c-1.2,0-2.4,0-3.59,0l-.8.13A8.9,8.9,0,0,0,4.92,3.42,1.1,1.1,0,0,1,3.59,3.52Z"/><path class="cls-4" d="M484.48,27.49a8,8,0,0,1,8.06-8.26,8.13,8.13,0,0,1,.21,16.26A8,8,0,0,1,484.48,27.49Z"/><path class="cls-1" d="M359.69,109V66.3c1.31.83.93,1.77.93,2.53,0,12.14.07,24.29,0,36.43,0,2.14.46,3.12,2.75,2.82a17.32,17.32,0,0,1,4.07,0c2,.23,2.39-.67,2.38-2.47-.07-11,0-22,0-33.08V70.08c1.35,1,.76,2.39,1,3.56q0,17.08.11,34.17c0,.77,0,1.55-1,1.5C366.47,109.14,363.05,109.76,359.69,109Z"/><path class="cls-5" d="M331.31,55.61c.11.91-.05,1.6-1.2,1.56-1,0-1.15-.64-1.15-1.45,0-1.51,0-3,0-4.54,0-1.23-.43-1.8-1.68-1.68h-.24c-7.21-.29-7.21-.29-7.22,6.89,0,17.08,0,34.15-.12,51.22,0,1.44.71,1.38,1.59,1.39,2.87,0,5.75,0,8.62,0-3.3.72-6.64.2-10,.28a1.05,1.05,0,0,1-1.15-1.22c0-.48,0-1,0-1.44,0-18.45,0-36.89-.06-55.34,0-2.35.7-3.12,3-2.91a37.92,37.92,0,0,0,5.74,0c1.82-.12,2.71.43,2.49,2.4a33.07,33.07,0,0,0,0,3.59C330,55.29,330.1,56.05,331.31,55.61Z"/><path class="cls-6" d="M297.29,72.06c.76,2.19-.35,4.29-.76,6.28a24,24,0,0,1-4,9.06,4.68,4.68,0,0,1-2,1.91c2.23-3.65,4.45-7.31,5.34-11.58.05-.23.15-.45.21-.69,1.1-4.21.8-4.61-3.54-4.61-8.54,0-17.08-.05-25.61,0-1.94,0-2.76-.48-2.59-2.55a55.68,55.68,0,0,0,0-6.46c0-1.3.41-1.91,1.76-1.91l40.47,0c.28,0,.56.23.85.35l-.07.12a2.35,2.35,0,0,1-1.76.4c-12.84,0-25.68-.07-38.51,0-1.1.24-.94,1.13-.95,1.9,0,1.75.06,3.5,0,5.25-.08,1.47.51,2,1.95,1.94,4.13-.06,8.27,0,12.41,0,4.69,0,9.39,0,14.09,0A4.46,4.46,0,0,1,297.29,72.06Z"/><path class="cls-7" d="M2.1,119.53c0-.15,0-.3.07-.44,1.22,0,1.74,1,2.38,1.77,2.31,2.65,10.32,3.86,13.38,2.14a4.22,4.22,0,0,0,.3-2.35q0-35.34,0-70.69c0-.3,0-.6,0-.9.11-1.64,0-3.27,0-4.91.28-2.53-.59-5.15.6-7.61a.6.6,0,0,1,.81.22,5.7,5.7,0,0,1,.41,3.05q0,40.86,0,81.73c0,3.53,0,3.57-3.64,3.53a30.38,30.38,0,0,1-5.72-.17C7,124.52,4,123,2.1,119.53Z"/><path class="cls-8" d="M10.71,124.9c2.39,0,4.78-.1,7.17-.06,1.15,0,1.64-.4,1.53-1.53a5.77,5.77,0,0,1,0-.72q0-42.54,0-85.07c0-.32,0-.64-.06-1-.74-1.41-1.12-2.78.4-4,.89.59.73,1.53.8,2.39s0,1.45,0,2.17c0,1.18,0,2.37,0,3.55q0,40.13,0,80.24a10.76,10.76,0,0,1-.16,3.1,3.83,3.83,0,0,1-.5.82c0,.13-.08.26-.11.4C16.75,125.23,13.7,125.82,10.71,124.9Z"/><path class="cls-9" d="M487.8,109.09a1,1,0,0,1,1.08-1h1.68c6.39,0,6.39,0,6.39-6.29q0-24.81,0-49.6c0-.81-.26-1.71.47-2.58,0,18.67,0,37.15,0,55.63a12.18,12.18,0,0,0,.48,3.76A37.14,37.14,0,0,1,487.8,109.09Z"/><path class="cls-10" d="M410.6,109.08q0-22,0-43.91a27,27,0,0,1,.89,7q.08,17.3,0,34.61C411.49,107.59,412.19,108.85,410.6,109.08Z"/><path class="cls-10" d="M396.5,60.59c1.84.29,1.83,1.91,2.3,3.19a21.63,21.63,0,0,1,1.71,7.72c-.08,12.51,0,25-.05,37.53-.87-.68-.43-1.63-.43-2.44,0-10.62,0-21.25,0-31.87C399.93,69.77,399.39,64.87,396.5,60.59Z"/><path class="cls-11" d="M3.59,3.52c.74-.44,1.51-.85,2.22-1.34,2.47-1.7,5-2.12,7.74-.6,2.63,1.27,5.51,2.21,6.86,5.17-2-.45-3.42-1.93-5.06-3A9.44,9.44,0,0,0,1.07,9.87c-.54,2.5.13,5.08-.84,7.48C-.33,12.33-.1,7.51,3.59,3.52Z"/><path class="cls-12" d="M474.42,109.05q0-18.57,0-37.13a28.54,28.54,0,0,0-1.7-8.41,11.73,11.73,0,0,1-.17-2.6,20,20,0,0,1,2.29,9.38c.09,12.34,0,24.68,0,37C474.83,107.9,475.11,108.6,474.42,109.05Z"/><path class="cls-5" d="M329.93,109q0-18,0-36c0-1.05-.42-2.33,1-2.88-1.33,11.07-.24,22.18-.63,33.27C330.27,105.29,330.87,107.21,329.93,109Z"/><path class="cls-10" d="M400.45,109l10.16,0A34.94,34.94,0,0,1,400.45,109Z"/><path class="cls-12" d="M464.34,109l10.09,0A32.21,32.21,0,0,1,464.34,109Z"/><path class="cls-13" d="M462.37,72.56a2.62,2.62,0,0,1-2.38-1A2.55,2.55,0,0,1,462.37,72.56Z"/><path class="cls-14" d="M429.3,107.52a3.1,3.1,0,0,1,1.88,1C430.33,108.61,429.59,108.48,429.3,107.52Z"/><path class="cls-14" d="M431.19,108.55a3,3,0,0,1,1.94.93A1.57,1.57,0,0,1,431.19,108.55Z"/><path class="cls-15" d="M297.29,72.06c-10,0-19.92,0-29.89,0-1.6,0-2.19-.17-1.88-2.06a27.74,27.74,0,0,0,0-6.44c-.08-1-.07-1.56,1.08-1.53a2.41,2.41,0,0,0,1.16.19h37a2.43,2.43,0,0,0,1.17-.19l1.43,0V75.81c-1.15-.56-.89-1.27-.9-1.82,0-3.12-.05-6.24,0-9.36,0-1.22-.4-1.71-1.66-1.71-12.16,0-24.32-.23-36.46.17-3.69.12-1,3.85-1.67,5.81-.51,1.47.25,2.25,2,2.23,8.64-.08,17.28,0,25.91,0C295.56,71.11,296.7,70.81,297.29,72.06Z"/><path class="cls-16" d="M461.94,82.11c2.08.63,1.85,2,1.55,3.79-1.55,9.33-12.24,16.39-21.23,14.66-4.92-1-8.45-3.74-9.34-7.71a10.36,10.36,0,0,1,4.78-10.63c5.37-3.43,11.28-3.56,17.29-2.55a13.37,13.37,0,0,1,5,1.49A15.82,15.82,0,0,1,461.94,82.11Z"/><path class="cls-17" d="M461.94,82.11a2.16,2.16,0,0,1-1.94-1A1.83,1.83,0,0,1,461.94,82.11Z"/><path class="cls-18" d="M520.62,109c-2.74,0-5.47,0-8.21,0a.94.94,0,0,1-1-1q0-.72,0-1.44V21.33a4.32,4.32,0,0,1,.47,2.74q0,40.55,0,81.1c0,2.28.56,3.15,2.91,2.92,1.95-.19,3.95,0,5.92,0Z"/><path class="cls-19" d="M20.41,6.75c-2-2.14-4.78-3.17-6.86-5.17l.15-.11a6.17,6.17,0,0,1,2.6-.18q68.89,0,137.77,0a5.07,5.07,0,0,1,2.59.22Q150,6.1,143.26,10.67c-.44.31-.45.59,0,.92.27.95-.5,1.24-1.07,1.63-3.11,2.1-6.13,4.33-9.24,6.43-7.42,5.08-14.93,10-22.21,15.32-7.55,4.76-14.76,10-22.11,15.08-2.08,1.43-3.74,1.6-5.82.06-3.33-2.46-6.91-4.57-10.29-7-3-2.61-6.51-4.57-9.81-6.79-2.56-1.74-5-3.61-7.69-5.22a58.29,58.29,0,0,0-6.67-4.68,5.35,5.35,0,0,1-.56-.36c-3.43-2.28-6.76-4.69-10.17-7-.7-.48-1.57-.81-1.86-1.74Z"/><path class="cls-20" d="M18.44,124.32c-3.53-.2-7,.5-10.6-.8a13.37,13.37,0,0,1-5.67-4.43c-.49-1.45-1-2.89-1.45-4.34a71,71,0,0,0,.18-10c0-4.54.2-9.08.25-13.62,0-1.25.28-2.43,1.7-2.37,5,.2,10-1.05,15-1.13a1.81,1.81,0,0,1,.68.22,74,74,0,0,1,.15,9.06c0,8.91,0,17.82,0,26.74A1.61,1.61,0,0,1,18.44,124.32Z"/><path class="cls-21" d="M48.24,25.94a28.83,28.83,0,0,1,6.81,4.78c-.06.06-.14.17-.16.16-3.54-1.38-4.1,1.85-5.44,3.65-2,2.6-3.91,5.19-6.07,7.6s-2.84,2.52-5.69.76A8.22,8.22,0,0,0,36,42c-3-1-5.13-3.39-7.77-5-1.94-1.34-3.94-2.59-5.86-4-.64-.46-1.66-.69-1.52-1.84.7,0,1.45.13,2.05-.41,3.84-3.46,7.9-6.72,10.18-11.57.41-.87.93-1.68-.37-2.64,1.38-.13,2,1.06,3,.7a139.7,139.7,0,0,1,12.54,8.6c-.17.31-.6.32-.73.66a.74.74,0,0,1,.39.11c.27.05,0-.11,0-.15A.65.65,0,0,1,48.24,25.94Z"/><path class="cls-22" d="M18.92,36.55q0,3.84,0,7.69a9.59,9.59,0,0,0,0,4.76v.52c-.53,3.56-.13,7.14-.24,10.71-.08,2.78.08,5.58-.07,8.36a20,20,0,0,1-7.79,1.77c-2.06.11-4.14,0-6.21,0-1.64,0-2.21.7-2.29,2.3-.06,1.28.72,3-1.15,3.7V47.58c.29-.51.69-1,1.28-1,2.67.09,5.14-1.15,7.79-1.14a15.72,15.72,0,0,0,1.68-.06c4.88-.59,5.79-1.62,5.85-6.5,0-1.11-.17-2.26.55-3.25C19.23,35.46,19.2,35.92,18.92,36.55Z"/><path class="cls-23" d="M1.16,76.37c1-1.28.52-2.78.42-4.13-.17-2.19.67-2.85,2.72-2.61,1.17.14,2.41-.13,3.57.06,3.62.58,7-1.24,10.56-1,.53,5.29.11,10.61.22,15.91a7,7,0,0,1-.23,3.28c-4.68.75-9.34,1.88-14.14,1.42-2.1-.2-2.58.52-2.73,2.63-.5,7.09-.35,14.18-.39,21.27,0,.55.05,1.13-.44,1.55,0-8-.31-16.1.08-24.11C1,85.88,1,81.13,1.16,76.37Z"/><path class="cls-24" d="M18.43,35.6c0,2.08-.12,4.16,0,6.23a2.58,2.58,0,0,1-1.89,2.93c-1.86.53-3.58,1.55-5.67,1.42-3.32-.19-6.47,1.08-9.75,1.4,0-9.17,0-18.33,0-27.49,0-.6-.85-2,.91-1.81C6.69,23.73,12,28.45,17,33.53,17.59,34.14,18.47,34.55,18.43,35.6Z"/><path class="cls-25" d="M18.43,35.6C13.31,30.79,8.29,25.88,3.55,20.69a4.13,4.13,0,0,1-1.44-2.41c5.82,4.94,12.3,8.92,18.73,13l7.67,5.3c.12.67-.36.73-.82.83-3-.89-5.23-3.18-7.88-4.73-.73,1.23-.11,2.63-.48,3.91a1.88,1.88,0,0,0-.41,0A1,1,0,0,0,18.43,35.6Z"/><path class="cls-26" d="M132.64,19.23l10.57-7.64c4.1-2.26,7.76-5.19,11.68-7.73.33-.21.65-.46,1-.68C161.3-.59,167.45,1.37,170,7.59a17.41,17.41,0,0,1,.88,8.21c-2,3.69-5.44,5.92-8.79,8.21-3.75,2.56-7.55,5-11.25,7.65a4,4,0,0,1-.87.56c-4,1.93-7.26,4.82-10.89,7.23-1.52,1-3.1,1.94-4.59,3-.44.31-1,.94-1.58,0,.3-2.62,1.38-5,1.86-7.61A65.66,65.66,0,0,0,136.33,26c.08-1.55.94-2.89.94-4.42,0-.85.25-1.75-.31-2.57-1.06,0-1.63.93-2.48,1.3C133.46,20.76,132.4,21,132.64,19.23Z"/><path class="cls-27" d="M19.88,124.88l.08-.57a2.44,2.44,0,0,1,1.64-.58c.3,0,.61,0,.91,0,14.48,0,29,.1,43.42,0,26.37-.24,52.74-.76,79.11-.55,1.52,0,3,0,4.56,0,.3,0,.6.08.9.13a2.15,2.15,0,0,1,.8.36.83.83,0,0,1,.09,1.18L22,124.86Z"/><path class="cls-28" d="M150.51,31.51c2.3-2.46,5.41-3.81,8.06-5.79,2.94-2.18,6.15-4,8.88-6.46a10.29,10.29,0,0,0,2.66-3.62c.37-.87.48.21.76.16,0,.95.11,1.91.11,2.87v94.66a11.42,11.42,0,0,1-11,11.54,51.32,51.32,0,0,1-8.13,0A.63.63,0,0,1,152,124c.93-.7,2-.4,3-.4a21,21,0,0,0,7.08-.8c5-1.77,7.68-5.21,7.72-10.59.06-10.14,0-20.28,0-30.42,0-18.53,0-37,.06-55.57,0-1.48,0-2.95,0-4.42,0-.92.08-1.85.1-2.77a.22.22,0,0,0-.15-.16s-.12.07-.18.13c-2.62,3.57-6.47,5.6-9.95,8.06-2.55,1.82-5,3.93-8,5A1.82,1.82,0,0,1,150.51,31.51Z"/><path class="cls-16" d="M156.66,1.51H16.82c-1,0-2.08,0-3.12,0C14.42.7,15.36,1,16.19,1H156.93a.2.2,0,0,1,.16.12C157.14,1.5,156.85,1.45,156.66,1.51Z"/><path class="cls-29" d="M152,124.32l-.09.52h-.49l-.06-1c-.93-1.2-.61-2.61-.61-3.93q0-35.82,0-71.63c0-2.23,0-4.47,0-6.7,0-1.21,0-2.41,0-3.62,0-.39,0-.78,0-1.17,0-.85.39-1.92-.2-2.5-.8-.78-1.44.56-2.27.61a2,2,0,0,1-1.13-.15c-.19-2.15,1.92-2,2.94-3l.42-.29a.75.75,0,0,1,.86.23c1.69,1.08,1,2.8,1.15,4.29,0,.72,0,1.44,0,2.15.06,1.79-.05,3.57,0,5.35.16,2,.08,4,.08,6q0,35.17,0,70.36C152.64,121.39,152.76,122.92,152,124.32Z"/><path class="cls-1" d="M305.89,62c-.57.62-1.34.41-2,.41H268.64c-.7,0-1.46.21-2-.41Z"/><path class="cls-30" d="M18.42,87.89q0-9.6,0-19.19c0-5.57,0-11.14,0-16.71,0-.83-.33-1.77.46-2.47q0,36,0,72.09c0,.91.41,1.93-.46,2.71Q18.42,106.11,18.42,87.89Z"/><path class="cls-30" d="M18.91,49a5.38,5.38,0,0,1,0-4.76Z"/><path class="cls-31" d="M19.93,37.09v-2c.33-.32.44-1.75,1.08-.6.75,1.37,2,1.79,3.13,2.43,3.11,1.76,6,3.87,9.34,5.26,4,1.66,7.26,4.56,10.88,6.87,3,1.92,5.74,4.32,9.11,5.69a10.36,10.36,0,0,1,1.59.64c7.08,4.74,14,9.64,21.1,14.42,2.55,2.08,5.45,3.65,8.06,5.63.93.7,2.05.27,2.92.87a.87.87,0,0,1,0,.69,2.07,2.07,0,0,1-2.27.74,6.13,6.13,0,0,1-1.94-.9c-7.06-4.91-14.3-9.56-21.5-14.26-7.59-4.94-16-8.41-23.47-13.48C33.41,46,28,44.4,23.79,40.83c-.51-.37-1-.76-1.52-1.11a10.91,10.91,0,0,1-1.56-1.4A10.61,10.61,0,0,1,19.93,37.09Z"/><path class="cls-32" d="M21.33,124.32H20c0-6.87-.08-13.75-.08-20.62q0-31.66.05-63.33c.26-.4.13-.87.22-1.3.13-.63.39-1,1-.31a3.1,3.1,0,0,1,.32.83,23.07,23.07,0,0,1,.16,4.07q0,37.17,0,74.35c0,1.52,0,3,.14,4.55A2.06,2.06,0,0,1,21.33,124.32Z"/><path class="cls-33" d="M53.5,55.25c-1,.19-1.64-.43-2.36-.91C45.76,50.74,40.51,47,35,43.63c-2.84-1.7-5.93-3-8.84-4.67-1.56-.87-2.76-2.42-4.76-2.57-.67,0-.38-.92-.56-1.4-.37-1-.57.14-.89.12,0-.82-.07-1.63-.11-2.45,1.35-.62,1.88.77,2.74,1.23,1.73.91,3.31,2.09,4.95,3.16,5.19,3,10,6.55,15,9.71,3.12,2.08,6.07,4.4,9.2,6.48a6.18,6.18,0,0,1,.53.36C52.71,54.12,53.65,54.28,53.5,55.25Z"/><path class="cls-34" d="M20.83,38.47c-.77.41-.19,1.45-.9,1.89V37.09a1.44,1.44,0,0,1,.91.89c.15.11.19.22.14.33S20.88,38.47,20.83,38.47Z"/><path class="cls-35" d="M132.64,19.23c.24,1,.85,1.44,1.63.61.92-1,2.12-1.5,3.79-2.67a95.87,95.87,0,0,1-4.92,25.61c0,1.31-1.15,1.61-2,2.13-9.44,6.12-18.46,12.86-27.91,19a13,13,0,0,0-2.07,1.63c-1.89,1.35-3.86,2.6-5.77,3.93a16.39,16.39,0,0,0-2.9,2.06,26,26,0,0,1-5.72,3.92c-2.36,1-3.51-1.25-5.22-2-1.21-1.16-3.2-1.44-3.8-3.3,1-2.39,3-4.14,4.48-6.16,2.69-3.58,5-7.4,7.54-11.07.65-.93,1.4-2,.6-3.31-.66-1.09.47-1.37,1-1.77,5.72-4,11.43-8,17.23-11.84a9.08,9.08,0,0,0,1.86-1.46c4.71-3.91,10-7,15-10.54C127.84,22.32,130.26,20.81,132.64,19.23Z"/><path class="cls-36" d="M36.18,41.35c.29.14.56.29.86.42,1.27.54,2.22,2.34,3.67,1.74a8.82,8.82,0,0,0,4.13-4.1c1.26-2.27,3.68-3.65,4.71-6.11.09-.21.4-.33.46-.54.79-2.89,2.43-3.64,5-2,3.89,1.93,7.21,4.73,10.82,7.1a44.47,44.47,0,0,1,6.91,4.92A49.51,49.51,0,0,1,62.64,56.68c-.64.64-.37,2.34-2,1.87-3.69-1.6-6.67-4.34-10.13-6.31-3.1-2.05-6-4.39-9.24-6.22-1.64-.77-2.88-2.11-4.45-3C36.16,42.68,35.62,42.18,36.18,41.35Z"/><path class="cls-37" d="M60.66,58.14c1.49.44.61-1,1.19-1.48,2.51-1.85,4.14-4.52,6-7,1.45-1.93,3.49-3.61,3.72-6.27.09-1,.8-.5,1.23-.68,3.64,2.43,7.31,4.81,10.89,7.32a2.85,2.85,0,0,0,3.81,0c7.22-5.06,14.53-10,21.8-15a2.11,2.11,0,0,1,1.27-.56c-1.18,2.14-3.49,2.94-5.3,4.28-4.38,3.23-9,6.14-13.5,9.18-.78.53-1.19.67-.31,1.94s-.83,3-1.72,4.35c-2.65,4-5.34,7.93-8.13,11.81A48,48,0,0,1,78,70.14c-1.21.46-2-.47-2.74-1-4.42-3.22-8.93-6.32-13.47-9.35C61.16,59.39,60.43,59.07,60.66,58.14Z"/><path class="cls-38" d="M36.18,41.35c1.18,2.14,3.45,3,5.29,4.31.4.46,1.36.58.94,1.54A133.59,133.59,0,0,1,27.5,37.05a1.15,1.15,0,0,0,1-.49c1.77,1.28,3.54,2.57,5.33,3.84C34.54,40.89,35.21,41.51,36.18,41.35Z"/><path class="cls-36" d="M48.19,26.94c.45.07,1,.06,1.08.64,0,.06-.18.24-.28.25-.63.05-.74-.4-.8-.88Z"/><path class="cls-36" d="M48.19,27c-.36-.13-1,.27-1-.42,0-.51.66-.5,1.09-.59h0c0,.33,0,.67-.05,1Z"/><path class="cls-39" d="M101,65.33c.17-1.12,1.21-1.39,2-1.91Q118,53.09,133.14,42.78q7.49-5.16,15-10.32a2.86,2.86,0,0,1,2-.66c-.68,1.29-2.45,1.44-3,2.88a1.35,1.35,0,0,1-.64.77c-1.94,1-3.93,2-5.32,3.81a39.91,39.91,0,0,1-7.06,5.29c-8,5.3-15.75,10.86-23.7,16.18a8.75,8.75,0,0,1-2.52,1.35c-1.67.51-2.92,1.76-4.4,2.6C102.71,65.11,102,66,101,65.33Z"/><path class="cls-40" d="M150.42,123.88c-20.68,0-41.38-.37-62,.13-22.2.54-44.38.12-66.57.3.16-1.26,1.19-1.36,2.11-1.55a13.6,13.6,0,0,1,2.63,0c25.9,0,51.8,0,77.67,0,.45-1.15-.67-1.41-1.17-1.92C92.6,110.06,81.47,100,71.09,89.26a3.94,3.94,0,0,1-1-1.33c0-.65.44-.93.86-1.27A5,5,0,0,1,72.06,86,5,5,0,0,0,74,84.6a7.15,7.15,0,0,1,3.07-1.86c1.59.3,1.33,1.16.49,2a16.14,16.14,0,0,1-3.4,2.62c-1,.56-1.13,1.3-.3,2.11,3.32,3.23,6.35,6.75,10,9.67,2.06,1.66,2.27,1.64,4.17-.25,6.56-6.53,13-13.18,19.68-19.6,3.67-3.53,8-6.25,12.17-9.2,5.9-4.19,12.24-7.82,17.5-12.88,3.29-3.17,7.09-5.67,10.7-8.42.78-.6,2.2-2,2.84.36q.06,36.12,0,72.22A3.63,3.63,0,0,1,150.42,123.88Z"/><path class="cls-19" d="M70.27,87.89a1.68,1.68,0,0,1,1,1c-.75,2.5-3.21,3.29-5,4.55-3.19,2.26-6.4,4.53-9.54,6.84-9,6.63-18.18,13-27.1,19.74-.67.51-1.55.87-1.8,1.86,1,.69,2.18.4,3.27.4q35.27,0,70.52,0a10.44,10.44,0,0,1,4.69.68c-.8.83-1.82.46-2.73.46q-39.08,0-78.16,0c-1.26,0-2.58-.19-3.58.9l-.23,0h-.24c0-.46,0-.92,0-1.39,1.9-2.08,4.39-3.41,6.63-5,10.49-7.52,20.81-15.27,31.29-22.79,2.46-1.76,5-3.47,7.33-5.36C67.63,88.91,68.63,87.7,70.27,87.89Z"/><path class="cls-41" d="M150.42,123.88V48.06c-.95-1.05-.67-2.27-.5-3.48.17-.34.25-.79.76-.78s.43.39.44.68c0,1.28,0,2.55,0,3.83q0,36.5,0,73a5.08,5.08,0,0,1-.22,2.59h-.48Z"/><path class="cls-40" d="M150.9,123.88V48.06c.15-.22.29-.21.43,0q0,26.31.07,52.62c0,7.74-.05,15.47-.07,23.2h-.43Z"/><path class="cls-42" d="M152,124.32c0-1-.1-2.07-.1-3.11q0-37.56,0-75.12c0-1,.05-1.92.07-2.87.53-.74-.46-2,.8-2.46.64,1.69,1.63,2,3.12.88,3.21-2.48,7.27-3.39,10.53-5.88,1.77-1.35,2.95-2.52,2.64-4.8a5.88,5.88,0,0,1,.09-1.67c0-.23.09-.45.15-.67.53-.81-.27-2.25,1.23-2.59,0,29.14.09,58.29,0,87.43,0,4.61-3.33,8.58-8,10.07C158.94,124.68,155.47,124,152,124.32Z"/><path class="cls-43" d="M151.93,36.08c-.23-1.44.23-3-.56-4.34,6.5-3.91,13.07-7.74,18.25-13.44,1.1,1.91.73,5.69-.8,6.93a52.44,52.44,0,0,1-7,5A47.69,47.69,0,0,0,153.4,36C152.9,36.48,152.45,37,151.93,36.08Z"/><path class="cls-44" d="M151.93,36.08c1.73-.51,2.84-1.95,4.21-2.95,3.68-2.67,7.72-4.76,11.36-7.5,2.81-2.12,2.33-4.63,2.12-7.33a4.53,4.53,0,0,1,.55-.43c.29-.15.39,0,.39.3,0,1,0,2-.05,3-.4,1.49.06,3.08-.56,4.53a20.41,20.41,0,0,1-6.84,5.44,60.06,60.06,0,0,0-9.9,6.9c-.53.44-.89.67-1.27-.09Z"/><path class="cls-45" d="M169.62,26c.3-1.59.59-3.18.89-4.77V26c-.91.75.11,2.11-.89,2.83C168.74,27.9,169.07,27,169.62,26Z"/><path class="cls-46" d="M107.82,61.55c5-2.89,9.65-6.42,14.44-9.67,6.24-4.23,12.4-8.58,18.59-12.88a26.44,26.44,0,0,1,5.68-3.91l.58-.41c1.26.17,2-.82,2.86-1.41,1-.67,1.41-.49,1.4.69s0,2.35-.06,3.53c-1.19,0-.29-1.11-.74-1.51a1.63,1.63,0,0,1,0,1.11c-4.14,3.54-9.12,5.85-13.45,9.12q-9.26,7-18.93,13.42c-8.1,5.4-15.75,11.45-24,16.59-2.31,1.44-4.63,1.25-7.06.63l0-.59c-.06-1,.72-1.3,1.37-1.7a35.71,35.71,0,0,0,5.1-3.71,12.22,12.22,0,0,1,1.69-1.1C99.22,66.74,103.72,64.45,107.82,61.55Z"/><path class="cls-47" d="M151.33,48.06h-.43c0-1.23,0-2.45,0-3.68,0,0-.09-.09-.14-.14l-.32.46a8,8,0,0,1-3.25,3.11c-6.8,4-13.15,8.77-19.73,13.16a9.32,9.32,0,0,0-1.33,1c-5.76,5.49-12.64,9.39-19.32,13.57a41.17,41.17,0,0,0-5.06,3.62c-3,2.64-6.57,4-10.37,5.21a10.28,10.28,0,0,1-7.75-.53c-2-.88-2.5-1.86-2-4.15.83-.61,1.49-.26,2.07.4,2.58,2.9,5.74,2.27,8.86,1.34,4.23-1.25,7.5-4.23,11-6.66,6.23-4.32,12.33-8.8,18.7-12.91S134.36,53.3,140.4,49c2.59-1.83,5.18-3.71,7.9-5.37.91-.56,1.85-1,1.56-2.37a5,5,0,0,1,.14-1.81,1.27,1.27,0,0,1,.42-.6c1.46.4.27,1.76.89,2.46C151.32,43.57,151.32,45.82,151.33,48.06Z"/><path class="cls-48" d="M169.62,26v2.87h0c-1.65,2.5-4.45,3.54-6.71,5.25-3.23,2.43-6.75,4.46-10.09,6.76-.9.55-.08,1.75-.87,2.35,0-1.74,0-3.48,0-5.22,1.92-1.34,3.9-2.6,5.8-3.94a57,57,0,0,1,5.71-3.71A58.89,58.89,0,0,0,169.62,26Z"/><path class="cls-49" d="M151.31,41.32c-.81-.6,0-1.81-.89-2.38a1.36,1.36,0,0,1,0-1.92V35.47c.83.61.16,1.61.89,2Z"/><path class="cls-50" d="M150.42,37v2.4a33.45,33.45,0,0,1-5.31,4c-3.62,2.58-7.56,4.72-11.16,7.32-5.94,4.29-12,8.45-17.84,12.85-4.39,3.3-9,6.3-13.71,9.2-2.71,1.67-5,3.94-7.93,5.33a10.33,10.33,0,0,1-8.75.4c-1.58-.22-2.77,1-4.22,1.21a1.59,1.59,0,0,1-.5.43c-1.39.91-2.47.6-3.47-.71a8.09,8.09,0,0,0-4.1-2.75c-3.52-1.14-6.33-3.62-9.53-5.38-1.65-.9-3.25-1.75-5.19-1-.22.09-.54.2-.69.09-2.59-1.82-6.15-1.29-8.55-3.7s-4.65-5.27-7.64-7.19c-2.43-1.57-4.2-3.85-6.25-5.84-3-2.87-5.87-5.8-8.75-8.76-.61-.62-1.61-1.16-1.14-2.34,1.37-.14,2.2.82,3,1.65,2.42,2.56,5.14,4.77,7.71,7.16,1.78,1.67,4.25,2.06,6.3,3.28,2.37,1.4,5.13,2.11,7.28,3.95,1.18,1,2.78,1.17,4.12,1.88,9.14,4.83,18.22,9.8,26.55,16,1.36,1,2.72.41,4,.8a3.7,3.7,0,0,0,2.39-.49c.74.06,1.16-.85,2.29-.14s2.93,0,4.24-.86c6.68-4.45,13.22-9.08,19.73-13.78,4.08-3,8.28-5.78,12.55-8.5,3.07-2,5.88-4.3,8.88-6.37,3.71-2.56,7.2-5.48,11.35-7.37C147.67,39.11,148.44,37.14,150.42,37Z"/><path class="cls-51" d="M84.67,77.34c-2.06,1-3.55.15-5.33-1.08-5.73-4-11.8-7.38-17.79-10.93-4.89-2.89-10.15-5-15-7.92a73.21,73.21,0,0,0-8.9-4.32c-2.5-1.09-4.33-3.66-6.52-5.5-1.87-1.57-3.05-3.93-5.51-4.8-1.34.15-1.79-.77-2.17-1.79a1,1,0,0,1,.26-.62c4.17,3.14,9.15,4.84,13.53,7.71a65.2,65.2,0,0,0,11,6.24c2.9,1.17,5.59,2.84,8.33,4.27s5.07,3.58,7.71,5.16C71.3,68,77.91,72.76,84.67,77.34Z"/><path class="cls-52" d="M60.66,58.14c1.68,1.7,3.85,2.71,5.77,4.07,3.82,2.68,7.68,5.29,11.52,7.93L81.79,73a.37.37,0,0,1,.13.38c0,.13-.1.19-.14.19-2.32-.51-3.81-2.46-5.88-3.4l-17.78-12c-1.1-.75-2.17-1.52-3.26-2.29A9.9,9.9,0,0,0,52,53.82h0c-.56-.58-1.63-.79-1.43-1.93C54.23,53.51,57.13,56.33,60.66,58.14Z"/><path class="cls-53" d="M75.9,70.19c2.31.49,3.77,2.48,5.89,3.31a9.31,9.31,0,0,1,2.83,1.68c.8.56,1.41.7,2-.23l5.74-3.86a1.15,1.15,0,0,1,1.57,0L87,76.26a3.37,3.37,0,0,1-3.67-.73C81,73.62,78.17,72.28,75.9,70.19Z"/><path class="cls-54" d="M52,53.82a3.2,3.2,0,0,1,2.82,2.06l-1.36-.63Z"/><path class="cls-50" d="M23.72,40.38v.49c-1,.21-1.57-.12-1.63-1.17.07-.1.14-.19.2-.29A1.49,1.49,0,0,1,23.72,40.38Z"/><path class="cls-50" d="M20.83,38.47c0-.17,0-.33,0-.49a3.12,3.12,0,0,1,1.44,1.43v0c-.72.54-1.08,0-1.43-.49C20.84,38.78,20.83,38.62,20.83,38.47Z"/><path class="cls-34" d="M20.84,38.94l1.43.49c0,.93.83,1.08,1.44,1.44a5.06,5.06,0,0,0,1.92,1.92Q33.5,51.22,42,59.1a8.83,8.83,0,0,1,1.12.9c7.85,8.19,16.58,15.48,24.4,23.7a13,13,0,0,0,3.76,3.24l-1,1Q53.73,100,37.18,112c-4.76,3.45-9.59,6.79-14.39,10.19a2.45,2.45,0,0,1-1.47.7c-.79-.7-.47-1.64-.47-2.48Q20.82,79.69,20.84,38.94Z"/><path class="cls-54" d="M50.59,51.89c.48.64,1,1.28,1.43,1.93a67.2,67.2,0,0,1-9.61-6.62c-.32-.51-.63-1-.94-1.54A57.18,57.18,0,0,1,50.59,51.89Z"/><path class="cls-55" d="M107.82,61.55a124.63,124.63,0,0,1-12.57,8.67.76.76,0,0,1,0-1A19.37,19.37,0,0,1,101,65.33c1.77-.5,3-1.88,4.58-2.72C106.28,62.21,106.83,61.38,107.82,61.55Z"/><path class="cls-56" d="M86.59,75c-.31,1.33-1.17,1.08-2,.59-1-.61-1.9-1.36-2.84-2V73a29,29,0,0,1,2.92,1.81A1.5,1.5,0,0,0,86.59,75Z"/><path class="cls-56" d="M95.22,69.17l0,1-1.35.92-1.57,0A5.07,5.07,0,0,1,95.22,69.17Z"/><path class="cls-35" d="M84,52.1A3.33,3.33,0,0,1,87,51.62C86.13,52.74,85.3,52.33,84,52.1Z"/><path class="cls-35" d="M89.74,50.12a1.59,1.59,0,0,1-.52.26c-.26,0-.48-.12-.32-.43a.66.66,0,0,1,.38-.27C89.53,49.62,89.72,49.74,89.74,50.12Z"/><path class="cls-57" d="M146.53,35.09A28.68,28.68,0,0,1,140.85,39,9.4,9.4,0,0,1,146.53,35.09Z"/><path class="cls-58" d="M106.27,122.93H28.06c-.65,0-1.39,0-1.68-.65s.43-1,.93-1.41c4.32-3.09,8.41-6.46,13-9.28,2.51-1.55,4.69-3.77,7.18-5.49,3.33-2.3,6.53-4.76,9.8-7.13q7-5.07,14-10.12C75.49,93,79.63,97.33,84,101.36,91.64,108.34,98.7,115.9,106.27,122.93Z"/><path class="cls-59" d="M81.79,79.74c-.3,2.23.8,3.21,2.89,3.89,6,2,11-.66,15.38-4,4-3,8.35-5.25,12.26-8.23,4.45-3.4,9.46-6,13.57-9.93,3.1-3,6.92-5.31,10.61-7.62,4.71-3,9.36-6,13.92-9.18v3.36a62.29,62.29,0,0,0-12,9c-4.23,4-9.27,6.95-13.86,10.47-3.84,2.94-8,5.32-11.84,8.33-8.86,7-16.11,15.68-24.25,23.42-1.7,1.62-2.8,2.49-5,.42-3.62-3.37-7-7-10.59-10.38-1.13-1.07-.29-1.82.59-2.2,1.44-.62,2.4-1.83,3.68-2.64.71-.45,1.23-1-.15-1.35.43-2.42,2.94-2.17,4.32-3.36h0A.29.29,0,0,1,81.79,79.74Z"/><path class="cls-60" d="M81.3,79.73c-1.24,1.37-3.2,1.82-4.32,3.36-1,.65-1.91,1.29-2.87,1.93-.68.42-1.26,1-1.93,1.43l-1,.49c-2.56.58-3.17-1.9-4.41-3.09-7.87-7.55-15.56-15.28-23.3-23C43,60.33,42.47,59.7,42,59.1c2.2.69,3.22,2.75,4.82,4.13,1.26,1.1,2.39,2.35,3.57,3.54.84.83,1.58,1.93,3,1.07a.28.28,0,0,1,.23,0c4.95,2.79,11.51,1.43,15.74,6.28,1,1.19,3,1.75,4.61,2.2A6.2,6.2,0,0,1,77.3,78.4C78.37,79.76,79.49,80.71,81.3,79.73Z"/><path class="cls-59" d="M72.18,86.45A2.29,2.29,0,0,1,74.11,85,2.26,2.26,0,0,1,72.18,86.45Z"/><path class="cls-45" d="M152.82,40.87c0-1,1-1.61,1.59-1.94,5.37-2.92,10-6.9,15.21-10.07.59,3.62-.19,6.51-3.94,8.06-2.16.89-3.65,3-6.28,3.16-1.63.09-2.45,1.86-4,2.49C152.76,43.67,152.84,43.85,152.82,40.87Z"/><path class="cls-61" d="M81.79,79.74h-.48c1.41-.7,2.57-2,4.31-1.92-.07,1.42.49,2.19,2,2.27a12.09,12.09,0,0,0,7.51-1.76C106.31,71.3,116.6,63,127.71,56c6.53-4.16,12.74-8.78,19-13.26,1.06-.76,2.16-1.7,3.67-1.36-.08.71.72,1.28-.54,2.1-6.43,4.17-12.65,8.66-18.89,13.12-6,4.32-12.2,8.51-18.6,12.34-2.54,1.52-4.62,3.85-7.18,5.47-4.15,2.6-7.88,5.85-12.5,7.73a8.46,8.46,0,0,1-9.61-2A1.63,1.63,0,0,0,81.79,79.74Z"/><path class="cls-49" d="M150.42,41.34c-4.9,2.52-9,6.13-13.59,9.19-5.73,3.86-11.55,7.59-17.23,11.53-6.78,4.7-13.38,9.68-20.22,14.32-3.62,2.46-7.26,5.32-12.19,4.32-1-.2-1.92-.36-2.39-1.33-.39-.81.54-1,.82-1.55,4.41,2.4,8.32.51,11.69-2,5.27-3.93,10.87-7.33,16.26-11,3.53-2.43,6.74-5.33,10.34-7.63,5.33-3.41,10.06-7.65,15.71-10.64A41.14,41.14,0,0,0,146,42.11a15.84,15.84,0,0,1,4.45-2.69Z"/></g></g></svg>