<svg xmlns="http://www.w3.org/2000/svg" viewBox="0 0 226.86 221.86"><defs><style>.cls-1{fill:#301111;}.cls-2{fill:#f89a1d;}.cls-3{fill:#f9a01c;}.cls-4{fill:#1a0b0c;}.cls-5{fill:#250d0d;}.cls-6{fill:#220d0d;}.cls-7{fill:#200d0d;}.cls-8{fill:#301211;}</style></defs><title>illustrator</title><g id="Layer_2" data-name="Layer 2"><g id="Layer_1-2" data-name="Layer 1"><path class="cls-1" d="M191.88,221.86H35c-14.84-1-25.19-8.6-32-21.62-2.2-4.23-2-8.92-3-13.36V35C1.05,19.68,9.08,9.29,22.52,2.53c4-2,8.39-1.3,12.46-2.53h156.9c14.68,1.25,25.18,8.59,31.93,21.62,2.2,4.24,2,8.92,3.05,13.36v151.9c-1,14.85-8.6,25.19-21.62,32C201,221,196.32,220.81,191.88,221.86Z"/><path class="cls-2" d="M105.25,57.84q11.79,33,23.58,65.94,4.84,13.58,9.59,27.19c.64,1.85,1.7,3.63,1.44,5.73a65.21,65.21,0,0,1-21.86-.11l-8.12-23.51c-3.15-1.5-6.5-.67-9.72-.6-8.38.19-16.81-.89-25.17.56L66.9,156.68a58,58,0,0,1-19.88,0c2-10,6.12-19.23,9.33-28.78C63,108.28,70,88.78,76.69,69.18c1.35-3.94,2.21-8,3.3-12.07,6.6.8,13.23.13,19.84.37C101.64,57.55,103.48,57.15,105.25,57.84Z"/><path class="cls-2" d="M170.7,155.85a2.69,2.69,0,0,1,.14.84c-7,1-13.91,1.43-20.85-.18l0-75.33a63.68,63.68,0,0,1,20.89-.06,2.21,2.21,0,0,1-.12.88c-.76,5.46-.34,11-.31,16.44C170.53,117.58,170,136.72,170.7,155.85Z"/><path class="cls-2" d="M149.06,57A16.07,16.07,0,0,1,158,49.14a5.63,5.63,0,0,1,5.89.06c5.39,1.95,8.59,5.82,8.66,11.51.06,5.37-2.29,9.9-7.69,11.65S153,73.44,149,64.83A10.72,10.72,0,0,1,149.06,57Z"/><path class="cls-3" d="M170.7,155.85c-1.13-1.26-.79-2.82-.79-4.28q0-32.65,0-65.3c0-1.46-.34-3,.82-4.27C171.13,106.62,171.18,131.24,170.7,155.85Z"/><path class="cls-3" d="M75,133a2.87,2.87,0,0,1,2.61-1.11h29.71a2.75,2.75,0,0,1,2.57,1.15Z"/><path class="cls-3" d="M105.25,57.84c-8.42-.25-16.88,1.1-25.26-.73C88.41,57.27,96.88,55.84,105.25,57.84Z"/><path class="cls-4" d="M118,156.59l21.86.11C132.57,158.58,125.28,158.87,118,156.59Z"/><path class="cls-5" d="M170.85,81.12,150,81.18A38,38,0,0,1,170.85,81.12Z"/><path class="cls-6" d="M150,156.51c6.95.69,13.9.36,20.85.18C163.88,158.58,156.92,158.87,150,156.51Z"/><path class="cls-4" d="M47,156.7l19.88,0A33.6,33.6,0,0,1,47,156.7Z"/><path class="cls-6" d="M149.06,57,149,64.83C147.12,62.2,147.44,59.6,149.06,57Z"/><path class="cls-7" d="M163.84,49.2,158,49.14C159.93,47.41,161.89,47.34,163.84,49.2Z"/><path class="cls-8" d="M92.12,75.57c1.86,5.78,3.36,10.38,4.81,15,2.14,6.78,4.17,13.59,6.4,20.34.66,2,.82,3.07-1.82,3q-9.21-.15-18.43,0c-2.25,0-2.48-1-1.93-2.75C84.68,99.74,88.2,88.31,92.12,75.57Z"/></g></g></svg>