<svg xmlns="http://www.w3.org/2000/svg" xmlns:xlink="http://www.w3.org/1999/xlink" viewBox="0 0 199.5 69"><defs><style>.cls-1{isolation:isolate;}.cls-2{mix-blend-mode:multiply;}.cls-3{font-size:53px;font-family:MyriadPro-Regular, Myriad Pro;}.cls-4{fill:url(#linear-gradient);}</style>
  <linearGradient id="linear-gradient" x1="13.22" y1="44.13" x2="135.82" y2="33.43" gradientUnits="userSpaceOnUse"><stop offset="0.42" stop-color="#5bfad2"/><stop offset="0.99" stop-color="#fff"/></linearGradient>
</defs><title>locator</title><g class="cls-1"><g id="Layer_2" data-name="Layer 2"><g id="Layer_2-2" data-name="Layer 2"><g class="cls-2"><text class="cls-3" transform="translate(48.34 54.08) scale(0.95 1)">HOME</text><path class="cls-4" d="M197.77,58.76A6,6,0,0,1,193.58,69H53.07l-4.74-2.77L3,39.72l0,0-.07,0-.27-.18-.34-.24L2,39a5.57,5.57,0,0,1-1-1.13A4.05,4.05,0,0,1,.8,37.5l0,0a4.32,4.32,0,0,1-.32-.69A5.89,5.89,0,0,1,0,34.5a5.82,5.82,0,0,1,.45-2.27A4.43,4.43,0,0,1,.8,31.5,4.05,4.05,0,0,1,1,31.15,5.65,5.65,0,0,1,2,30l.3-.26.34-.24.27-.18.1-.06L48.33,2.78,53.07,0H193.58a6,6,0,0,1,5.92,6,6,6,0,0,1-1.73,4.24A5.85,5.85,0,0,1,193.58,12H56.28L17.79,34.5,56.28,57h137.3A5.85,5.85,0,0,1,197.77,58.76Z"/></g></g></g></g></svg>
