<svg xmlns="http://www.w3.org/2000/svg" viewBox="0 0 232.55 29.48"><defs><style>.cls-1{fill:#ed2125;}.cls-2{fill:#ed2225;}.cls-3{fill:#ee3533;}</style></defs><title>oracle_1</title><g id="Layer_2" data-name="Layer 2"><g id="Layer_1-2" data-name="Layer 1"><path class="cls-1" d="M31.84.49c-6-.22-11.95-.24-17.92,0A14.38,14.38,0,0,0,0,15.57c.26,7.92,6.35,13.75,14.53,13.89,2.65,0,5.31,0,8,0,3,0,6,0,9,0A14.51,14.51,0,0,0,46,15,14.76,14.76,0,0,0,31.84.49Zm-2.33,24.7c-2.28,0-4.57,0-6.86,0-2,0-4.06,0-6.09,0-6.27-.09-10.92-4.07-11.13-9.48S9.82,5.64,16.08,5.42c4.57-.17,9.15-.16,13.72,0,6,.2,10.84,4.69,10.85,9.88C40.67,20.75,35.82,25.08,29.51,25.19Z"/><path class="cls-1" d="M225.7,24.32c-1.06,4-3,5.41-6.65,5.13-4.31-.34-8.66,0-13-.09-8.6-.1-14.57-5.95-14.65-14.28S197.28.62,205.71.37c5.33-.16,10.66,0,16,0h3.57c-.83,4.1-3.15,5.49-7.11,5.16a110.07,110.07,0,0,0-11.49,0c-4.36.08-7.46,2.08-9.51,6.67h26.51c-.78,4.05-2.71,5.53-6.53,5.35-5.64-.28-11.32-.09-17,0-.76,0-1.86,0-2.21.5-.7.93.12,1.85.74,2.62a9.75,9.75,0,0,0,8.25,3.81C213.09,24.25,219.25,24.32,225.7,24.32Z"/><path class="cls-1" d="M82.08,29.15c-12.11,1.93-15.6-9-23-14.08H71.32c3.41,0,6.68-.55,6.62-4.87s-3.25-4.8-6.7-4.75c-4.33.06-8.66.14-13,0C55.7,5.3,54.74,6,54.83,8.73c.19,5.82,0,11.65.09,17.47,0,2.16-.24,3.35-2.9,3.28-2.44-.06-2.58-1.22-2.57-3.1.06-7.66.11-15.32,0-23,0-2.4.72-3.15,3.12-3.09,6.49.14,13,0,19.47,0,6.75,0,11.13,3.43,11.72,9,.57,5.37-3.25,9.51-10,10.84l-1.64.38Z"/><path class="cls-1" d="M97.06,19.38a42.09,42.09,0,0,0-3.79,5.83c-1.81,4.05-4.64,5.07-9,3.7C90,20,95.47,11.14,101.22,2.47c2.12-3.21,5.17-3.33,7.32-.13,5.89,8.77,11.48,17.73,17.31,26.81-3.8.48-7.14,1.06-8.58-3.23-.52-1.57-1.9-1.58-3.29-1.56-2.33.05-4.7-.27-7,.08-4.36.66-7.28-.88-9-4.91,3.44-2.93,7.72-.33,11.43-1.77.83-1.07-.14-1.82-.62-2.58-3.9-6.21-4.1-7.1-7.79-.09A11.4,11.4,0,0,1,97.06,19.38Z"/><path class="cls-1" d="M157.24.39c-.92,3.73-2.78,5.47-6.68,5.14a101.52,101.52,0,0,0-12,0c-6,.2-9.91,4.13-9.84,9.59s4.09,9.18,10.12,9.26,12.28,0,18.72,0c-.82,3.73-2.66,5.36-6.49,5.11-4.47-.29-9,0-13.45-.08a14.61,14.61,0,0,1-14.65-14C122.65,8,129,.84,136.73.46,143.5.12,150.29.39,157.24.39Z"/><path class="cls-2" d="M191.87,24.34c-1,3.67-2.63,5.3-6.34,5.13-6.64-.3-13.31-.24-19.95,0-3.76.12-5-1.36-4.9-5,.18-7,.12-14,0-20.95,0-2.18.28-3.31,2.9-3.26,2.47,0,3.11.92,3.05,3.23-.13,5.15.23,10.33-.13,15.46-.28,4.15.6,5.86,5.27,5.51C178.35,24,185,24.34,191.87,24.34Z"/><path class="cls-3" d="M232.53,28.46c0,.34,0,.68,0,1l-.93,0c.06-.3.11-.6.16-.9A3.82,3.82,0,0,1,232.53,28.46Z"/></g></g></svg>