<svg xmlns="http://www.w3.org/2000/svg" viewBox="0 0 85.73 11.7"><defs><style>.cls-1{fill:#231f20;}</style></defs><title>username</title><g id="Layer_2" data-name="Layer 2"><g id="copy_icon"><path class="cls-1" d="M4.51,11a4.74,4.74,0,0,1-1.81-.34,3.86,3.86,0,0,1-1.48-1A4.58,4.58,0,0,1,.32,8,6.62,6.62,0,0,1,0,5.91a7.15,7.15,0,0,1,.27-2A4.47,4.47,0,0,1,1.1,2.3a3.59,3.59,0,0,1,1.31-1A3.9,3.9,0,0,1,4,.94a2.61,2.61,0,0,1,2,.78,3,3,0,0,1,.72,2.09V8.33H5.9V7.68a1.54,1.54,0,0,1-.6.56,1.71,1.71,0,0,1-.86.2,2,2,0,0,1-1.57-.7A2.29,2.29,0,0,1,2.42,7a3.11,3.11,0,0,1-.16-1,3.12,3.12,0,0,1,.15-1A2.23,2.23,0,0,1,3.59,3.57a2.2,2.2,0,0,1,.83-.17,1.87,1.87,0,0,1,.88.21,1.41,1.41,0,0,1,.6.56V3.8a2.05,2.05,0,0,0-.51-1.47A1.83,1.83,0,0,0,4,1.78a2.84,2.84,0,0,0-1.23.27,2.85,2.85,0,0,0-1,.84,4.85,4.85,0,0,0-.86,3A4.65,4.65,0,0,0,1.83,9a3,3,0,0,0,1.11.84,3.5,3.5,0,0,0,1.46.3,3.69,3.69,0,0,0,1.3-.24L6,10.7c-.14.05-.26.1-.38.13l-.35.09L4.9,11Zm0-3.4a1.22,1.22,0,0,0,1-.46,1.84,1.84,0,0,0,.37-1.21,1.8,1.8,0,0,0-.37-1.21,1.25,1.25,0,0,0-1-.45,1.26,1.26,0,0,0-1,.45,1.83,1.83,0,0,0-.38,1.21,1.85,1.85,0,0,0,.38,1.22A1.26,1.26,0,0,0,4.55,7.59Z"/><path class="cls-1" d="M10.52,9.29a7.46,7.46,0,0,1-2.21-.41V7.76a4.92,4.92,0,0,0,2.2.62A1.88,1.88,0,0,0,11.6,8.1.88.88,0,0,0,12,7.33a.79.79,0,0,0-.34-.67,2.79,2.79,0,0,0-1.09-.41l-.45-.1a2.58,2.58,0,0,1-1.36-.62,1.55,1.55,0,0,1-.43-1.17A1.73,1.73,0,0,1,9,2.91a2.9,2.9,0,0,1,1.84-.51,5.25,5.25,0,0,1,1.95.38V3.84a3.78,3.78,0,0,0-1.92-.54c-.95,0-1.42.32-1.42,1a.93.93,0,0,0,.12.5,1,1,0,0,0,.47.31,8.09,8.09,0,0,0,1,.26l.43.08A1.72,1.72,0,0,1,13.1,7.2a1.88,1.88,0,0,1-.69,1.53A2.94,2.94,0,0,1,10.52,9.29Z"/><path class="cls-1" d="M15.43,0h1.08V3.54A2,2,0,0,1,18.45,2.4a1.84,1.84,0,0,1,1.24.37,1.94,1.94,0,0,1,.6,1,5.38,5.38,0,0,1,.16,1.3V9.12H19.37V5.05a2.16,2.16,0,0,0-.32-1.3,1.1,1.1,0,0,0-1-.42,1.33,1.33,0,0,0-.95.31,1.68,1.68,0,0,0-.49.77,3.66,3.66,0,0,0-.14,1V9.12H15.43Z"/><path class="cls-1" d="M24.5,9.29a2.31,2.31,0,0,1-1.57-.55,2,2,0,0,1-.62-1.57,2,2,0,0,1,.41-1.33,2.21,2.21,0,0,1,1.07-.67A5.08,5.08,0,0,1,25.21,5h1.44V4.8a1.4,1.4,0,0,0-.42-1.16A1.89,1.89,0,0,0,25,3.31a4.59,4.59,0,0,0-1.17.16,5,5,0,0,0-1.08.46V2.85a9,9,0,0,1,1.09-.32A4.78,4.78,0,0,1,25,2.4a4,4,0,0,1,1.14.16,2.48,2.48,0,0,1,1,.52,1.84,1.84,0,0,1,.53,1,6,6,0,0,1,.1,1.3V6.71c0,.37,0,.78.06,1.22a4.16,4.16,0,0,0,.28,1.19H27a2.81,2.81,0,0,1-.16-.49,5,5,0,0,1-.09-.51,2.1,2.1,0,0,1-1,.88A3,3,0,0,1,24.5,9.29Zm.26-.91a1.7,1.7,0,0,0,1.09-.32,1.91,1.91,0,0,0,.61-.86,3.33,3.33,0,0,0,.19-1.14V5.82H25.29a3.74,3.74,0,0,0-.89.1,1.48,1.48,0,0,0-.73.39,1.18,1.18,0,0,0-.28.84,1.15,1.15,0,0,0,.38.93A1.58,1.58,0,0,0,24.76,8.38Z"/><path class="cls-1" d="M29.88,0H31V3.54A2,2,0,0,1,32.9,2.4a1.84,1.84,0,0,1,1.24.37,1.86,1.86,0,0,1,.59,1,4.92,4.92,0,0,1,.17,1.3V9.12H33.81V5.05a2.17,2.17,0,0,0-.31-1.3,1.11,1.11,0,0,0-1-.42,1.37,1.37,0,0,0-1,.31,1.74,1.74,0,0,0-.48.77,3.66,3.66,0,0,0-.14,1V9.12H29.88Z"/><path class="cls-1" d="M39,9.29a2.29,2.29,0,0,1-1.57-.55,2,2,0,0,1-.62-1.57,2,2,0,0,1,.41-1.33,2.21,2.21,0,0,1,1.07-.67A5.08,5.08,0,0,1,39.66,5H41.1V4.8a1.4,1.4,0,0,0-.42-1.16,1.89,1.89,0,0,0-1.19-.33,4.72,4.72,0,0,0-1.18.16,4.87,4.87,0,0,0-1.07.46V2.85a8.48,8.48,0,0,1,1.09-.32,4.72,4.72,0,0,1,1.13-.13,4,4,0,0,1,1.14.16,2.37,2.37,0,0,1,.95.52,1.85,1.85,0,0,1,.54,1,6,6,0,0,1,.1,1.3V6.71c0,.37,0,.78.06,1.22a3.85,3.85,0,0,0,.28,1.19H41.45a2.81,2.81,0,0,1-.16-.49,5,5,0,0,1-.09-.51,2.1,2.1,0,0,1-1,.88A3,3,0,0,1,39,9.29Zm.26-.91a1.7,1.7,0,0,0,1.09-.32,1.91,1.91,0,0,0,.61-.86,3.33,3.33,0,0,0,.19-1.14V5.82H39.74a3.88,3.88,0,0,0-.9.1,1.49,1.49,0,0,0-.72.39,1.14,1.14,0,0,0-.28.84,1.15,1.15,0,0,0,.38.93A1.54,1.54,0,0,0,39.21,8.38Z"/><path class="cls-1" d="M47.2,9.29a1.91,1.91,0,0,1-1.8-1l-.11.83h-1V0H45.4V3.39a1.73,1.73,0,0,1,.74-.75,2.34,2.34,0,0,1,1.07-.24,2.18,2.18,0,0,1,1.18.3,2.27,2.27,0,0,1,.77.8,3.45,3.45,0,0,1,.42,1.11,6.32,6.32,0,0,1,.13,1.22,6.42,6.42,0,0,1-.13,1.23,3.87,3.87,0,0,1-.42,1.11,2.3,2.3,0,0,1-.77.81A2.13,2.13,0,0,1,47.2,9.29ZM47,8.37a1.34,1.34,0,0,0,.83-.24,1.62,1.62,0,0,0,.47-.62,3.28,3.28,0,0,0,.22-.83,6.15,6.15,0,0,0,.06-.84A6.38,6.38,0,0,0,48.51,5a3.28,3.28,0,0,0-.22-.83,1.62,1.62,0,0,0-.47-.62,1.56,1.56,0,0,0-1.66,0,1.55,1.55,0,0,0-.48.62,3.17,3.17,0,0,0-.22.83,5.91,5.91,0,0,0,0,1.68,3.17,3.17,0,0,0,.22.83,1.55,1.55,0,0,0,.48.62A1.34,1.34,0,0,0,47,8.37Z"/><path class="cls-1" d="M53.92,11.7a5.17,5.17,0,0,1-1-.09,7.62,7.62,0,0,1-.94-.24V10.31a8.75,8.75,0,0,0,.94.37,3.48,3.48,0,0,0,1,.15,1.69,1.69,0,0,0,1-.25,1.32,1.32,0,0,0,.49-.7,3.24,3.24,0,0,0,.15-1V8.07a1.85,1.85,0,0,1-.72.83,2,2,0,0,1-1.06.26,2.29,2.29,0,0,1-1.18-.29,2.33,2.33,0,0,1-.79-.8A3.88,3.88,0,0,1,51.43,7a5.6,5.6,0,0,1,0-2.4,3.62,3.62,0,0,1,.44-1.09,2.2,2.2,0,0,1,2-1.09,2.12,2.12,0,0,1,1,.24,2,2,0,0,1,.73.79l.1-.85h1V8.7A3.35,3.35,0,0,1,56,10.88,2.57,2.57,0,0,1,53.92,11.7Zm.13-3.43a1.29,1.29,0,0,0,1.16-.64,3.62,3.62,0,0,0,.4-1.86A6,6,0,0,0,55.55,5a3.5,3.5,0,0,0-.22-.8,1.59,1.59,0,0,0-.47-.61A1.37,1.37,0,0,0,54,3.31a1.34,1.34,0,0,0-1.19.62,3.31,3.31,0,0,0-.41,1.83,3.42,3.42,0,0,0,.42,1.86A1.35,1.35,0,0,0,54.05,8.27Z"/><path class="cls-1" d="M61.26,9.29a2.55,2.55,0,0,1-2.09-.89,3.9,3.9,0,0,1-.73-2.55,3.91,3.91,0,0,1,.73-2.56,2.51,2.51,0,0,1,2.08-.89,2.55,2.55,0,0,1,2.09.88,4,4,0,0,1,.72,2.57,4,4,0,0,1-.72,2.56A2.55,2.55,0,0,1,61.26,9.29Zm0-.92a1.41,1.41,0,0,0,1.24-.65,3.51,3.51,0,0,0,.43-1.88A3.49,3.49,0,0,0,62.49,4,1.51,1.51,0,0,0,60,4a3.49,3.49,0,0,0-.43,1.88A3.42,3.42,0,0,0,60,7.72,1.4,1.4,0,0,0,61.25,8.37Z"/><path class="cls-1" d="M66,0h1.07V3.54A2,2,0,0,1,69,2.4a1.82,1.82,0,0,1,1.24.37,1.94,1.94,0,0,1,.6,1A4.93,4.93,0,0,1,71,5.05V9.12H69.94V5.05a2.24,2.24,0,0,0-.31-1.3,1.13,1.13,0,0,0-1-.42,1.34,1.34,0,0,0-1,.31,1.68,1.68,0,0,0-.49.77,3.66,3.66,0,0,0-.14,1V9.12H66Z"/><path class="cls-1" d="M75.07,9.29a2.33,2.33,0,0,1-1.57-.55,2,2,0,0,1-.62-1.57,2,2,0,0,1,.41-1.33,2.24,2.24,0,0,1,1.08-.67A5,5,0,0,1,75.78,5h1.45V4.8a1.4,1.4,0,0,0-.43-1.16,1.89,1.89,0,0,0-1.19-.33,4.59,4.59,0,0,0-1.17.16,4.67,4.67,0,0,0-1.07.46V2.85a8,8,0,0,1,1.09-.32,4.64,4.64,0,0,1,1.12-.13,4,4,0,0,1,1.14.16,2.48,2.48,0,0,1,1,.52,1.85,1.85,0,0,1,.54,1,6.91,6.91,0,0,1,.09,1.3V6.71c0,.37,0,.78.06,1.22a3.85,3.85,0,0,0,.29,1.19H77.57a4,4,0,0,1-.16-.49c0-.18-.07-.34-.09-.51a2.1,2.1,0,0,1-1,.88A3,3,0,0,1,75.07,9.29Zm.26-.91a1.7,1.7,0,0,0,1.09-.32A1.91,1.91,0,0,0,77,7.2a3.33,3.33,0,0,0,.2-1.14V5.82H75.86a3.8,3.8,0,0,0-.89.1,1.49,1.49,0,0,0-.72.39,1.14,1.14,0,0,0-.29.84,1.15,1.15,0,0,0,.38.93A1.58,1.58,0,0,0,75.33,8.38Z"/><path class="cls-1" d="M81.08,2.55h1l.11,1.29A2.2,2.2,0,0,1,83,2.77a2.28,2.28,0,0,1,1.32-.37,2.39,2.39,0,0,1,1.41.41v1.1a2.26,2.26,0,0,0-1.5-.52A1.85,1.85,0,0,0,82.7,4a2.73,2.73,0,0,0-.53,1.82V9.12H81.08Z"/></g></g></svg>