<svg xmlns="http://www.w3.org/2000/svg" viewBox="0 0 399.79 345.29"><defs><style>.cls-1{fill:#43b883;}.cls-2{fill:#364a5e;}</style></defs><title>vue-final</title><g id="Layer_2" data-name="Layer 2"><g id="Layer_1-2" data-name="Layer 1"><path class="cls-1" d="M399.79,2.66c-6.74,9.49-12,19.86-17.83,29.89Q292.31,187,202.77,341.59c-.8,1.37-1.11,3.7-2.88,3.7s-2.08-2.33-2.87-3.7Q99.91,174.13,2.83,6.64C2,5.24,1.56,3.55,0,2.66v-1A6.61,6.61,0,0,1,4.64.14C29.1.19,53.56-.32,78,.38c3.39.66,4.67,3.53,6.15,6.09Q140.29,103.84,196.85,201c3,5.22,3,5.22,6,.12Q259.34,103.93,315.56,6.61c1.48-2.56,2.72-5.45,6.12-6.18C333.6-.34,345.52.18,357.43.09c11.76-.1,23.51,0,35.26,0,2.47,0,5-.23,7.1,1.58Z"/><path class="cls-2" d="M80.08,1.83c23.63-.05,47.26,0,70.89-.25,3.05,0,3.93,1.74,5.1,3.77q20.34,35.13,40.73,70.22c.89,1.52,1.85,3,2.82,4.58,2-1.25,2.47-3.07,3.35-4.59q20.28-34.86,40.44-69.8c1.67-2.9,3.34-4.23,6.9-4.19,23.13.24,46.27.21,69.4.26Q282.35,66.39,245,130.94c-14.16,24.46-28.4,48.89-42.46,73.42-2.15,3.77-3.08,3.76-5.25,0Q139.2,103.93,81,3.61C80.65,3,80.38,2.42,80.08,1.83Z"/></g></g></svg>