<svg xmlns="http://www.w3.org/2000/svg" width="221" height="229" viewBox="0 0 221 229" fill="none">
  <path d="M33.1719 134.568C33.1719 126.931 39.3627 120.74 47 120.74H217.086C219.509 120.74 220.76 124.778 219.027 126.47C214.692 130.699 210.131 137.279 210.131 146.232C210.131 155.473 214.991 162.324 219.444 166.662C221.159 168.332 219.935 172.198 217.54 172.198H47C39.3627 172.198 33.1719 166.007 33.1719 158.37V134.568Z" fill="black"/>
  <path d="M130.031 37.4996C130.031 50.7868 120.173 66.3702 100.458 66.3702C80.7426 66.3702 70.8848 50.7868 70.8848 37.4996C70.8848 23.1746 80.2201 20.0655 90.3391 20.3677C94.4919 20.4917 100.458 23.6535 100.458 23.6535C100.458 23.6535 106.424 20.4917 110.577 20.3677C120.696 20.0655 130.031 23.0644 130.031 37.4996Z" fill="white" stroke="black" stroke-width="2" stroke-linecap="round" stroke-linejoin="round"/>
  <path d="M109.207 57.744C112.288 56.5529 119.016 51.8785 121.283 42.7109" stroke="black" stroke-width="2" stroke-linecap="round" stroke-linejoin="round"/>
  <path d="M101.222 22.6909C95.1458 22.7483 89.5885 18.6271 88.1211 6.87109C93.9105 9.12761 103.339 8.07022 101.222 22.6909Z" fill="white" stroke="black" stroke-width="2" stroke-linecap="round" stroke-linejoin="round"/>
  <path d="M101.32 22.502C104.031 19.1135 108.097 8.63958 104.586 1" stroke="black" stroke-width="2" stroke-linecap="round" stroke-linejoin="round"/>
  <path d="M84.1939 41.4402C82.9289 39.0696 82.5716 35.1588 83.8634 32.1523" stroke="black" stroke-width="2" stroke-linecap="round" stroke-linejoin="round"/>
  <path d="M16.7598 82.7773C16.7598 75.1403 22.9508 68.9492 30.5879 68.9492H195.438C195.438 68.9492 182.673 77.1889 181.344 92.7606C180.015 108.332 195.438 116.464 195.438 116.464H30.5879C22.9508 116.464 16.7598 110.272 16.7598 102.635V82.7773Z" fill="white"/>
  <path fill-rule="evenodd" clip-rule="evenodd" d="M197.948 72.816L197.941 72.8202L197.897 72.8506C197.837 72.8907 197.736 72.9612 197.598 73.0617C197.321 73.2629 196.899 73.583 196.376 74.0193C195.326 74.8955 193.893 76.2214 192.422 77.9762C189.471 81.4975 186.497 86.5835 185.937 93.1526C185.42 99.2028 188.111 103.907 191.273 107.317C192.848 109.016 194.474 110.313 195.707 111.184C196.319 111.615 196.823 111.934 197.16 112.137C197.326 112.238 197.45 112.309 197.526 112.351C197.563 112.372 197.586 112.385 197.598 112.391L197.593 112.389L197.591 112.388C197.595 112.39 197.602 112.394 197.602 112.394C199.467 113.385 200.421 115.519 199.914 117.571C199.404 119.628 197.558 121.073 195.438 121.073H30.5879C20.4051 121.073 12.1504 112.818 12.1504 102.635V82.7773C12.1504 72.5945 20.4051 64.3398 30.5879 64.3398H195.438C197.482 64.3398 199.282 65.6858 199.861 67.6464C200.437 69.6012 199.66 71.7015 197.952 72.8123L197.948 72.816ZM189.278 111.854C192.488 114.908 195.438 116.464 195.438 116.464H30.5879C22.9508 116.464 16.7598 110.272 16.7598 102.635V82.7773C16.7598 75.1403 22.9508 68.9492 30.5879 68.9492H195.438C195.438 68.9492 193.019 70.5106 190.178 73.5586C186.491 77.5123 182.094 83.9675 181.344 92.7606C180.596 101.521 185.151 107.927 189.278 111.854Z" fill="black"/>
  <path d="M4.93164 190.301C4.93164 182.664 11.1227 176.473 18.7598 176.473H183.61C183.61 176.473 172.032 183.711 170.11 199.927C168.186 216.145 183.61 223.987 183.61 223.987H18.7598C11.1227 223.987 4.93164 217.795 4.93164 210.159V190.301Z" fill="white"/>
  <path fill-rule="evenodd" clip-rule="evenodd" d="M186.065 180.374C186.065 180.374 186.066 180.374 186.065 180.374C186.063 180.375 186.06 180.377 186.058 180.379C186.057 180.379 186.058 180.378 186.058 180.379M178.464 181.082C181.239 177.955 183.61 176.473 183.61 176.473H18.7598C11.1227 176.473 4.93164 182.664 4.93164 190.301V210.159C4.93164 217.795 11.1227 223.987 18.7598 223.987H183.61C183.61 223.987 180.619 222.466 177.435 219.378C173.389 215.453 169.033 209.002 170.11 199.927C171.162 191.05 175.108 184.864 178.464 181.082ZM185.703 219.881C185.708 219.883 185.712 219.885 185.716 219.887C185.718 219.887 185.719 219.887 185.716 219.887C187.606 220.858 188.588 222.994 188.093 225.061C187.596 227.133 185.742 228.597 183.61 228.597H18.7598C8.57696 228.597 0.322266 220.341 0.322266 210.159V190.301C0.322266 180.118 8.57696 171.863 18.7598 171.863H183.61C185.666 171.863 187.474 173.225 188.041 175.201C188.605 177.169 187.804 179.272 186.077 180.366C186.074 180.368 186.069 180.372 186.065 180.374M185.714 219.885C185.704 219.881 185.681 219.869 185.646 219.848C185.575 219.809 185.454 219.742 185.29 219.645C184.962 219.454 184.469 219.148 183.869 218.728C182.661 217.885 181.075 216.619 179.554 214.942C176.531 211.609 173.929 206.864 174.687 200.47C175.525 193.403 178.451 188.339 181.15 185.035C182.505 183.378 183.798 182.171 184.727 181.394C185.19 181.007 185.559 180.73 185.794 180.562C185.912 180.478 185.996 180.42 186.041 180.39L186.065 180.374L186.06 180.377L186.058 180.379M185.714 219.885H185.711L185.706 219.881" fill="black"/>
  <path d="M46.9805 134.666H154.429" stroke="white" stroke-width="2" stroke-linecap="round" stroke-linejoin="round"/>
  <path d="M46.9805 146.469H105.634" stroke="white" stroke-width="2" stroke-linecap="round" stroke-linejoin="round"/>
  <path d="M143.34 67.3672H162.439V95.6236C162.439 97.6768 159.956 98.7052 158.504 97.2532L154.519 93.268C153.619 92.368 152.16 92.368 151.259 93.268L147.274 97.2532C145.822 98.7052 143.34 97.6768 143.34 95.6236V67.3672Z" fill="black"/>
  <path d="M15.4355 188.428H122.884" stroke="black" stroke-width="2" stroke-linecap="round" stroke-linejoin="round"/>
  <path d="M15.4355 200.23H74.0887" stroke="black" stroke-width="2" stroke-linecap="round" stroke-linejoin="round"/>
  <path d="M29.2363 81.2715H119.434" stroke="black" stroke-width="2" stroke-linecap="round" stroke-linejoin="round"/>
</svg>