<svg width="1200" height="630" viewBox="0 0 1200 630" fill="none" xmlns="http://www.w3.org/2000/svg">
  <rect width="1200" height="630" fill="#050509"/>
  <path d="M0 0H1200V6H0V0Z" fill="#23DCE5"/>
  <path d="M0 624H1200V630H0V624Z" fill="#23DCE5"/>
  <path d="M0 0H1200V630H0V0Z" fill="url(#bg)"/>
  <path d="M80 72H1120V558H80V72Z" fill="#080A11" fill-opacity="0.78" stroke="#14233A"/>
  <path d="M80 72H1120V558H80V72Z" fill="url(#grid)"/>
  <path d="M797 72H1120V558H797V72Z" fill="#051B21" fill-opacity="0.72"/>
  <path d="M797 72H1120V558H797V72Z" fill="url(#sideGlow)"/>

  <text x="112" y="132" fill="#23DCE5" font-family="Arial, Helvetica, sans-serif" font-size="20" font-weight="700" letter-spacing="7">
    CASE STUDY
  </text>
  <rect x="112" y="154" width="86" height="4" fill="#23DCE5"/>

  <text x="112" y="248" fill="#FFFFFF" font-family="Impact, Arial Black, Arial, sans-serif" font-size="82" letter-spacing="1">
    SUITECRM
  </text>
  <text x="112" y="335" fill="#FFFFFF" font-family="Impact, Arial Black, Arial, sans-serif" font-size="82" letter-spacing="1">
    MIGRATION
  </text>

  <text x="112" y="394" fill="#D6DEE8" font-family="Arial, Helvetica, sans-serif" font-size="29" font-weight="700">
    Rebuilding CRM infrastructure for a
  </text>
  <text x="112" y="432" fill="#D6DEE8" font-family="Arial, Helvetica, sans-serif" font-size="29" font-weight="700">
    European textile company
  </text>

  <g font-family="Arial, Helvetica, sans-serif" font-size="18" font-weight="700">
    <rect x="112" y="478" width="116" height="38" fill="#091421" stroke="#14576A"/>
    <text x="137" y="503" fill="#DDE7EF">Docker</text>
    <rect x="244" y="478" width="168" height="38" fill="#091421" stroke="#14576A"/>
    <text x="269" y="503" fill="#DDE7EF">Google OAuth</text>
    <rect x="428" y="478" width="176" height="38" fill="#091421" stroke="#14576A"/>
    <text x="453" y="503" fill="#DDE7EF">Calendar Sync</text>
    <rect x="620" y="478" width="218" height="38" fill="#091421" stroke="#14576A"/>
    <text x="645" y="503" fill="#DDE7EF">CRM Modernization</text>
  </g>

  <g opacity="0.92">
    <rect x="858" y="145" width="198" height="238" rx="0" fill="#070D14" stroke="#1B354B"/>
    <rect x="882" y="170" width="86" height="10" fill="#23DCE5"/>
    <rect x="882" y="202" width="142" height="9" fill="#5D6E86"/>
    <rect x="882" y="228" width="118" height="9" fill="#5D6E86"/>
    <rect x="882" y="254" width="154" height="9" fill="#5D6E86"/>
    <rect x="882" y="294" width="96" height="30" fill="#0B2430" stroke="#14576A"/>
    <rect x="992" y="294" width="42" height="30" fill="#23DCE5"/>
    <path d="M882 356H1034" stroke="#1B354B"/>
    <circle cx="903" cy="407" r="9" fill="#23DCE5"/>
    <rect x="924" y="400" width="92" height="8" fill="#5D6E86"/>
    <circle cx="903" cy="438" r="9" fill="#23DCE5"/>
    <rect x="924" y="431" width="118" height="8" fill="#5D6E86"/>
    <circle cx="903" cy="469" r="9" fill="#23DCE5"/>
    <rect x="924" y="462" width="76" height="8" fill="#5D6E86"/>
  </g>

  <g opacity="0.88" font-family="Arial, Helvetica, sans-serif" font-size="18" font-weight="700">
    <text x="858" y="519" fill="#23DCE5">SuiteCRM 8.10.1</text>
    <text x="858" y="546" fill="#DDE7EF">version controlled</text>
  </g>

  <text x="112" y="572" fill="#23DCE5" font-family="Arial, Helvetica, sans-serif" font-size="22" font-weight="700" letter-spacing="5">
    shahabgohar.dev
  </text>

  <defs>
    <linearGradient id="bg" x1="0" y1="630" x2="1200" y2="0" gradientUnits="userSpaceOnUse">
      <stop stop-color="#140015" stop-opacity="0.75"/>
      <stop offset="0.48" stop-color="#050509" stop-opacity="0"/>
      <stop offset="1" stop-color="#062831" stop-opacity="0.85"/>
    </linearGradient>
    <linearGradient id="sideGlow" x1="797" y1="315" x2="1120" y2="315" gradientUnits="userSpaceOnUse">
      <stop stop-color="#23DCE5" stop-opacity="0.05"/>
      <stop offset="1" stop-color="#23DCE5" stop-opacity="0.16"/>
    </linearGradient>
    <pattern id="grid" width="60" height="60" patternUnits="userSpaceOnUse">
      <path d="M60 0H0V60" stroke="#152138" stroke-opacity="0.62"/>
    </pattern>
  </defs>
</svg>
